<?xml version="1.0" encoding="UTF-8"?>
<svg xmlns="http://www.w3.org/2000/svg" xmlns:xlink="http://www.w3.org/1999/xlink" width="32px" height="32px" viewBox="0 0 32 32" version="1.1">
<g id="surface1">
<path style=" stroke:none;fill-rule:nonzero;fill:rgb(16.078432%,70.980394%,90.980393%);fill-opacity:1;" d="M 4.929688 7.648438 L 11.433594 11.550781 C 12.175781 11.996094 13.125 11.871094 13.726562 11.25 C 14.125 10.867188 14.34375 10.34375 14.34375 9.792969 L 14.34375 1.976562 C 14.367188 1.28125 14.011719 0.625 13.410156 0.269531 C 12.8125 -0.0898438 12.066406 -0.0898438 11.464844 0.269531 C 10.863281 0.625 10.507812 1.28125 10.535156 1.976562 L 10.535156 6.425781 L 6.839844 4.210938 C 6.402344 3.949219 5.875 3.878906 5.378906 4.011719 C 4.886719 4.144531 4.472656 4.480469 4.230469 4.933594 C 3.703125 5.882812 4.011719 7.074219 4.929688 7.644531 M 20.566406 11.542969 L 27.070312 7.644531 C 27.988281 7.074219 28.296875 5.878906 27.769531 4.933594 C 27.527344 4.480469 27.113281 4.148438 26.617188 4.011719 C 26.125 3.875 25.597656 3.945312 25.160156 4.207031 L 21.507812 6.390625 L 21.507812 1.972656 C 21.535156 1.273438 21.175781 0.621094 20.578125 0.265625 C 19.976562 -0.09375 19.230469 -0.09375 18.632812 0.265625 C 18.035156 0.621094 17.675781 1.273438 17.703125 1.972656 L 17.703125 9.632812 C 17.664062 10.042969 17.75 10.457031 17.949219 10.816406 C 18.191406 11.265625 18.605469 11.601562 19.097656 11.738281 C 19.59375 11.875 20.121094 11.804688 20.558594 11.539062 M 14.777344 15.984375 C 14.78125 15.859375 14.828125 15.734375 14.910156 15.644531 L 15.671875 14.855469 C 15.761719 14.769531 15.878906 14.722656 16 14.714844 L 16.03125 14.714844 C 16.152344 14.722656 16.269531 14.769531 16.359375 14.855469 L 17.117188 15.644531 C 17.199219 15.738281 17.246094 15.859375 17.253906 15.984375 L 17.253906 16.015625 C 17.246094 16.140625 17.199219 16.261719 17.117188 16.355469 L 16.359375 17.148438 C 16.269531 17.230469 16.152344 17.28125 16.03125 17.289062 L 16 17.289062 C 15.878906 17.28125 15.761719 17.230469 15.671875 17.148438 L 14.910156 16.355469 C 14.828125 16.261719 14.78125 16.140625 14.777344 16.015625 Z M 12.472656 15.660156 L 12.472656 16.34375 C 12.484375 16.511719 12.546875 16.675781 12.660156 16.808594 L 15.238281 19.484375 C 15.363281 19.601562 15.519531 19.667969 15.6875 19.679688 L 16.34375 19.679688 C 16.511719 19.667969 16.667969 19.601562 16.789062 19.484375 L 19.371094 16.808594 C 19.484375 16.675781 19.546875 16.511719 19.558594 16.34375 L 19.558594 15.660156 C 19.546875 15.488281 19.484375 15.324219 19.371094 15.195312 L 16.789062 12.515625 C 16.667969 12.402344 16.511719 12.332031 16.34375 12.324219 L 15.6875 12.324219 C 15.519531 12.332031 15.363281 12.402344 15.238281 12.515625 L 12.660156 15.199219 C 12.546875 15.332031 12.484375 15.492188 12.472656 15.664062 M 1.566406 13.808594 L 5.246094 16.019531 L 1.566406 18.226562 C 0.644531 18.796875 0.335938 19.992188 0.867188 20.9375 C 1.105469 21.386719 1.523438 21.722656 2.015625 21.859375 C 2.507812 21.996094 3.035156 21.925781 3.476562 21.664062 L 9.980469 17.761719 C 10.582031 17.382812 10.929688 16.722656 10.929688 16.015625 C 10.929688 15.3125 10.574219 14.652344 9.980469 14.269531 L 3.476562 10.371094 C 3.035156 10.109375 2.507812 10.039062 2.015625 10.171875 C 1.523438 10.304688 1.105469 10.640625 0.867188 11.09375 C 0.335938 12.042969 0.644531 13.230469 1.566406 13.804688 M 21.0625 16.023438 C 21.050781 16.734375 21.414062 17.394531 22.019531 17.761719 L 28.519531 21.664062 C 28.957031 21.925781 29.484375 21.996094 29.976562 21.859375 C 30.472656 21.722656 30.886719 21.390625 31.128906 20.9375 C 31.660156 19.992188 31.351562 18.796875 30.429688 18.226562 L 26.75 16.019531 L 30.433594 13.808594 C 31.351562 13.238281 31.660156 12.046875 31.132812 11.097656 C 30.890625 10.648438 30.476562 10.3125 29.984375 10.175781 C 29.488281 10.039062 28.960938 10.109375 28.523438 10.378906 L 22.023438 14.277344 C 21.414062 14.648438 21.050781 15.316406 21.066406 16.03125 M 12.738281 20.253906 C 12.292969 20.167969 11.824219 20.25 11.433594 20.484375 L 4.929688 24.386719 C 4.011719 24.957031 3.703125 26.152344 4.230469 27.097656 C 4.472656 27.546875 4.886719 27.882812 5.378906 28.019531 C 5.875 28.15625 6.402344 28.085938 6.839844 27.824219 L 10.535156 25.609375 L 10.535156 30.023438 C 10.507812 30.71875 10.863281 31.378906 11.464844 31.734375 C 12.066406 32.09375 12.8125 32.09375 13.414062 31.734375 C 14.011719 31.378906 14.371094 30.71875 14.34375 30.023438 L 14.34375 22.199219 C 14.355469 21.246094 13.679688 20.421875 12.738281 20.25 M 27.070312 24.386719 L 20.566406 20.488281 C 20.125 20.222656 19.597656 20.152344 19.105469 20.289062 C 18.609375 20.425781 18.195312 20.761719 17.953125 21.210938 C 17.753906 21.574219 17.667969 21.984375 17.707031 22.398438 L 17.707031 30.023438 C 17.679688 30.71875 18.035156 31.378906 18.636719 31.734375 C 19.238281 32.09375 19.984375 32.09375 20.585938 31.734375 C 21.1875 31.378906 21.542969 30.71875 21.515625 30.023438 L 21.515625 25.640625 L 25.15625 27.824219 C 25.597656 28.085938 26.125 28.160156 26.617188 28.023438 C 27.113281 27.890625 27.527344 27.554688 27.769531 27.101562 C 28.296875 26.152344 27.988281 24.964844 27.070312 24.390625 "/>
</g>
</svg>
